<svg width="249" height="117" viewBox="0 0 249 117" fill="none" xmlns="http://www.w3.org/2000/svg">
<path fill-rule="evenodd" clip-rule="evenodd" d="M248.455 86.4968H232.552C232.552 83.8293 229.51 75.4098 223.404 61.232C216.95 46.1452 211.933 36.8793 208.369 33.4406C205.134 34.845 199.376 36.9843 191.098 39.8618C190.835 43.2316 190.707 45.6859 190.707 47.2313V80.4956C190.97 81.2667 190.97 83.2682 190.707 86.4968H174.544V7.75577C174.37 6.07254 174.37 4.28103 174.544 2.38781H190.707V20.7032C190.618 24.4929 190.618 26.5272 190.707 26.8094C191.488 26.3894 192.184 26.1794 192.794 26.1794C197.335 25.2673 202.572 22.1633 208.481 16.8446C214.062 11.8966 217.996 7.07329 220.257 2.38781H236.856C235.38 7.29969 230.166 14.5117 221.212 24.0368C224.168 28.5287 228.207 36.0721 233.336 46.6505C240.462 61.5798 245.502 74.8619 248.455 86.4936M169.068 59.7587C169.068 69.7958 163.506 77.3391 152.383 82.3921C138.494 88.8494 123.913 89.2399 109.105 87.1301C101.719 86.0769 97.6766 84.9908 96.981 83.8654L103.629 75.2326C103.455 75.2326 127.988 81.4209 142.215 74.4944C149.689 70.9868 153.427 66.2128 153.427 60.1787C153.427 54.4958 149.036 48.9867 140.263 43.6516C132.093 39.4418 123.968 35.196 115.887 30.9141C107.11 26.0023 102.72 21.1954 102.72 16.4935C102.72 6.94861 111.497 2.17781 129.051 2.17781H137.264C141.434 2.24672 144.174 2.28281 145.476 2.28281C144.522 6.63362 143.606 10.0034 142.74 12.3888C142.392 12.3888 140.135 12.2674 135.961 12.0213C131.791 11.7752 129.487 11.6538 129.051 11.6538C121.665 11.6538 117.971 13.2681 117.971 16.4968C117.971 18.2522 122.403 21.3397 131.266 25.7594C143.084 31.7246 151.297 36.3576 155.901 39.6551C164.678 46.1813 169.068 52.8847 169.068 59.762V59.7587ZM91.8985 2.38781C91.8099 3.44106 91.7672 5.33428 91.7672 8.07404C91.7672 21.7171 91.5047 35.3699 91.5047 49.0228C91.5966 60.6479 91.7968 60.5265 91.8952 86.6018H75.601V3.86104C75.4271 3.50996 75.4271 3.01779 75.601 2.38781H91.8952H91.8985ZM55.9207 35.8621C55.9207 27.7905 52.8134 21.4743 46.6219 16.9135C40.6896 12.6316 32.6737 10.4922 22.617 10.4922C21.8361 10.4922 19.3358 10.7022 15.1195 11.1222C15.4903 25.5265 15.1195 39.5042 15.1195 53.0193V77.4409C16.3369 77.7919 18.1415 77.9658 20.5531 77.9658C28.5034 77.9658 35.4988 74.9472 41.5394 68.9131C46.1231 64.2113 49.8374 58.0722 52.6854 50.4928C54.8379 44.5276 55.9239 39.6486 55.9239 35.8588L55.9207 35.8621ZM70.9122 39.3368C66.9158 71.6201 47.534 87.7601 12.7735 87.7601C6.60496 87.7601 2.47727 87.3401 0.390457 86.4968L0 8.38903C0 4.52712 2.38868 2.14172 7.16932 1.22956C32.841 -3.70201 75.5485 5.64927 70.9122 39.3368Z" fill="white"/>
<path d="M129.379 103.398C128.618 102.748 127.811 102.263 126.964 101.938C126.114 101.613 125.225 101.452 124.287 101.452C122.476 101.452 121.002 102.033 119.867 103.195C118.732 104.356 118.164 105.862 118.164 107.709C118.164 109.557 118.719 110.971 119.821 112.132C120.927 113.294 122.321 113.875 124.001 113.875C124.982 113.875 125.914 113.701 126.803 113.353C127.689 113.005 128.539 112.484 129.356 111.781V114.826C128.631 115.348 127.844 115.735 126.99 115.991C126.137 116.247 125.215 116.375 124.218 116.375C122.951 116.375 121.78 116.168 120.704 115.752C119.628 115.338 118.683 114.725 117.869 113.917C117.062 113.127 116.442 112.191 116.008 111.115C115.575 110.039 115.359 108.897 115.359 107.68C115.359 106.463 115.575 105.324 116.008 104.258C116.442 103.191 117.072 102.253 117.892 101.446C118.715 100.632 119.657 100.015 120.72 99.5952C121.783 99.1752 122.935 98.9652 124.172 98.9652C125.146 98.9652 126.072 99.1063 126.958 99.3885C127.84 99.6706 128.697 100.1 129.527 100.671L129.379 103.388V103.398Z" fill="white"/>
<path d="M154.027 107.686C154.027 108.864 153.807 109.977 153.364 111.023C152.925 112.073 152.281 113.009 151.435 113.829C150.582 114.652 149.62 115.282 148.551 115.719C147.478 116.155 146.356 116.375 145.178 116.375C144 116.375 142.848 116.155 141.765 115.712C140.683 115.273 139.728 114.643 138.898 113.829C138.051 113.009 137.411 112.073 136.975 111.033C136.538 109.993 136.319 108.878 136.319 107.683C136.319 106.489 136.538 105.383 136.975 104.333C137.411 103.286 138.054 102.345 138.898 101.515C139.744 100.691 140.699 100.064 141.772 99.6345C142.842 99.2047 143.977 98.9882 145.178 98.9882C146.379 98.9882 147.501 99.2047 148.567 99.6345C149.634 100.064 150.592 100.691 151.435 101.515C152.281 102.351 152.925 103.296 153.364 104.35C153.807 105.403 154.027 106.512 154.027 107.683V107.686ZM151.222 107.686C151.222 106.85 151.067 106.052 150.762 105.298C150.457 104.543 150.017 103.871 149.443 103.283C148.885 102.702 148.239 102.256 147.504 101.941C146.769 101.629 145.995 101.472 145.178 101.472C144.361 101.472 143.586 101.626 142.851 101.935C142.116 102.243 141.46 102.693 140.886 103.28C140.312 103.861 139.875 104.53 139.574 105.285C139.272 106.039 139.121 106.84 139.121 107.683C139.121 108.526 139.272 109.314 139.574 110.059C139.875 110.807 140.312 111.473 140.886 112.06C141.46 112.648 142.113 113.097 142.845 113.406C143.577 113.714 144.354 113.868 145.174 113.868C145.995 113.868 146.749 113.714 147.478 113.406C148.206 113.097 148.859 112.648 149.44 112.06C150.014 111.473 150.454 110.804 150.759 110.052C151.064 109.301 151.218 108.51 151.218 107.683L151.222 107.686Z" fill="white"/>
<path d="M160.819 116.405V98.7421L171.342 108.871C171.627 109.156 171.919 109.465 172.215 109.786C172.51 110.111 172.818 110.475 173.143 110.886V99.0013H175.633V116.615L164.894 106.305C164.609 106.026 164.33 105.731 164.064 105.423C163.795 105.114 163.542 104.789 163.3 104.448V116.408H160.822L160.819 116.405Z" fill="white"/>
<path d="M196.442 103.408C195.681 102.758 194.874 102.273 194.028 101.948C193.178 101.623 192.289 101.462 191.35 101.462C189.539 101.462 188.066 102.043 186.93 103.204C185.795 104.366 185.228 105.872 185.228 107.719C185.228 109.567 185.782 110.981 186.884 112.142C187.99 113.304 189.385 113.885 191.065 113.885C192.046 113.885 192.978 113.711 193.867 113.363C194.753 113.015 195.603 112.493 196.42 111.791V114.836C195.694 115.358 194.907 115.745 194.054 116.001C193.201 116.257 192.279 116.385 191.281 116.385C190.015 116.385 188.843 116.178 187.767 115.761C186.691 115.348 185.746 114.734 184.932 113.927C184.125 113.136 183.505 112.201 183.072 111.125C182.639 110.049 182.422 108.907 182.422 107.69C182.422 106.472 182.639 105.334 183.072 104.268C183.505 103.201 184.135 102.263 184.955 101.456C185.779 100.642 186.72 100.025 187.784 99.605C188.847 99.185 189.998 98.975 191.235 98.975C192.21 98.975 193.135 99.1161 194.021 99.3983C194.904 99.6805 195.76 100.11 196.59 100.681L196.442 103.398V103.408Z" fill="white"/>
<path d="M203.379 116.385V99.0538H213.048V101.446H206.194V105.79H213.048V108.264H206.194V113.862H213.048V116.382H203.379V116.385Z" fill="white"/>
<path d="M222.485 108.592V116.385H219.84V99.0177H224.109C225.376 99.0177 226.304 99.0866 226.901 99.2244C227.499 99.3622 228.017 99.5886 228.46 99.9069C229.005 100.31 229.435 100.855 229.74 101.538C230.048 102.22 230.202 102.975 230.202 103.798C230.202 104.622 230.048 105.38 229.74 106.075C229.431 106.771 229.005 107.319 228.46 107.713C228.017 108.028 227.499 108.254 226.901 108.389C226.304 108.523 225.372 108.589 224.109 108.589H222.485V108.592ZM222.662 106.279H223.387C224.952 106.279 225.996 106.108 226.518 105.77C227.039 105.432 227.302 104.829 227.302 103.969C227.302 103.044 227.023 102.391 226.465 102.01C225.907 101.629 224.88 101.439 223.387 101.439H222.662V106.279Z" fill="white"/>
<path d="M244.42 101.449V116.388H241.601V101.449H236.998V99.0571H249V101.449H244.42Z" fill="white"/>
</svg>
